<svg width="116" height="157" viewBox="0 0 116 157" fill="none" xmlns="http://www.w3.org/2000/svg">
<path fill-rule="evenodd" clip-rule="evenodd" d="M37.8778 121.195C37.8778 121.195 31.927 124.652 42.1174 125.819C54.4663 127.227 60.7739 127.025 74.378 124.456C74.378 124.456 77.9596 126.694 82.9592 128.631C52.4538 141.679 13.9205 127.876 37.8778 121.195ZM34.1488 104.168C34.1488 104.168 27.4728 109.101 37.6723 110.153C50.864 111.513 61.2768 111.624 79.3064 108.161C79.3064 108.161 81.7959 110.684 85.7136 112.062C48.836 122.829 7.76414 112.909 34.1488 104.168Z" fill="#00916E"/>
<path fill-rule="evenodd" clip-rule="evenodd" d="M65.5706 75.2801C73.0906 83.9208 63.5994 91.6919 63.5994 91.6919C63.5994 91.6919 82.6851 81.859 73.9191 69.5411C65.7347 58.0592 59.4568 52.3551 93.4391 32.6841C93.4391 32.6841 40.0958 45.9774 65.5706 75.2801Z" fill="#86BBD8"/>
<path fill-rule="evenodd" clip-rule="evenodd" d="M105.915 133.79C105.915 133.79 110.32 137.415 101.063 140.219C83.4594 145.541 27.7831 147.146 12.3178 140.431C6.76243 138.015 17.1855 134.667 20.4647 133.96C23.8848 133.222 25.8365 133.356 25.8365 133.356C19.6543 129.011 -14.1238 141.891 8.68186 145.586C70.8687 155.652 122.043 141.055 105.915 133.79ZM40.7408 86.5232C40.7408 86.5232 12.4238 93.2389 30.7146 95.68C38.4401 96.7109 53.8291 96.4735 68.1751 95.2723C79.8958 94.2904 91.6606 92.1899 91.6606 92.1899C91.6606 92.1899 87.5309 93.9588 84.5387 95.9948C55.7783 103.547 0.227329 100.029 16.2213 92.3099C29.7439 85.78 40.7408 86.5232 40.7408 86.5232ZM91.543 114.866C120.776 99.7056 107.26 85.1336 97.8234 87.0973C95.5162 87.5786 94.4809 87.9941 94.4809 87.9941C94.4809 87.9941 95.3418 86.6496 96.9781 86.0716C115.644 79.5236 129.996 105.389 90.96 115.632C90.96 115.632 91.4085 115.227 91.543 114.866Z" fill="#E63462"/>
<path fill-rule="evenodd" clip-rule="evenodd" d="M73.919 0.912109C73.919 0.912109 90.1056 17.0801 58.5623 41.934C33.266 61.8785 52.795 73.2468 58.5546 86.2408C43.786 72.9423 32.9532 61.2334 40.2198 50.3386C50.8885 34.3461 80.4503 26.5905 73.919 0.912109Z" fill="#86BBD8"/>
<path fill-rule="evenodd" clip-rule="evenodd" d="M43.6167 155.959C71.6726 157.75 114.765 154.965 115.787 141.71C115.787 141.71 113.825 146.734 92.5976 150.72C68.6481 155.22 39.1044 154.696 21.5879 151.81C21.5879 151.81 25.1773 154.775 43.6167 155.959Z" fill="#00916E"/>
</svg>
